<svg width="1024" height="1024" viewBox="0 0 1024 1024" fill="none" xmlns="http://www.w3.org/2000/svg">
  <defs>
    <linearGradient id="paper-fill" x1="278" y1="156" x2="724" y2="846" gradientUnits="userSpaceOnUse">
      <stop offset="0" stop-color="#FFFFFF"/>
      <stop offset="1" stop-color="#F4F7FA"/>
    </linearGradient>
    <linearGradient id="accent-fill" x1="302" y1="246" x2="302" y2="760" gradientUnits="userSpaceOnUse">
      <stop offset="0" stop-color="#19C2B4"/>
      <stop offset="1" stop-color="#0A84FF"/>
    </linearGradient>
    <linearGradient id="spark-fill" x1="684" y1="210" x2="792" y2="338" gradientUnits="userSpaceOnUse">
      <stop offset="0" stop-color="#19C2B4"/>
      <stop offset="1" stop-color="#0A84FF"/>
    </linearGradient>
    <filter id="paper-shadow" x="168" y="118" width="696" height="800" filterUnits="userSpaceOnUse" color-interpolation-filters="sRGB">
      <feDropShadow dx="0" dy="30" stdDeviation="34" flood-color="#162033" flood-opacity="0.14"/>
    </filter>
  </defs>
  <rect x="72" y="72" width="880" height="880" rx="228" fill="#F8FAFC"/>
  <rect x="84" y="84" width="856" height="856" rx="216" stroke="#D8E0EA" stroke-width="24"/>
  <g filter="url(#paper-shadow)">
    <path d="M260 176C260 145.072 285.072 120 316 120H626L792 286V736C792 780.183 756.183 816 712 816H316C285.072 816 260 790.928 260 760V176Z" fill="url(#paper-fill)"/>
    <path d="M626 120L792 286H682C651.072 286 626 260.928 626 230V120Z" fill="#E8EEF5"/>
    <path d="M630 120V228C630 257.823 654.177 282 684 282H792" stroke="#CAD5E2" stroke-width="18" stroke-linejoin="round"/>
    <rect x="310" y="236" width="42" height="524" rx="21" fill="url(#accent-fill)"/>
    <path d="M424 398H630" stroke="#1E2633" stroke-width="42" stroke-linecap="round"/>
    <path d="M424 510H674" stroke="#1E2633" stroke-width="42" stroke-linecap="round"/>
    <path d="M424 622H588" stroke="#1E2633" stroke-width="42" stroke-linecap="round"/>
    <path d="M721 208L744 263L799 286L744 309L721 364L698 309L643 286L698 263L721 208Z" fill="url(#spark-fill)"/>
    <path d="M628 308L640 337L669 349L640 361L628 390L616 361L587 349L616 337L628 308Z" fill="#19C2B4"/>
  </g>
</svg>
